<svg width="512" height="512" viewBox="0 0 512 512" fill="none" xmlns="http://www.w3.org/2000/svg">
<rect x="26" y="31" width="460" height="449.048" rx="224.524" fill="#3D855E" style="fill:#3D855E;fill:color(display-p3 0.2392 0.5200 0.3702);fill-opacity:1;"/>
<path d="M249.197 169.109L250.398 137.793C250.398 135.454 248.297 134.281 244.103 134.281C239.909 134.281 237.808 135.405 237.808 137.645V138.228C237.808 138.614 237.858 139.738 237.959 141.592C238.06 143.446 238.16 146.571 238.261 150.961C238.463 155.252 238.707 161.306 239.009 169.109C239.009 170.864 240.707 171.742 244.103 171.742C247.499 171.742 249.197 170.864 249.197 169.109Z" fill="#F5F5F4" style="fill:#F5F5F4;fill:color(display-p3 0.9608 0.9608 0.9569);fill-opacity:1;"/>
<path d="M274.679 169.109L275.881 137.793C275.881 135.454 273.78 134.281 269.586 134.281C265.391 134.281 263.29 135.405 263.29 137.645V138.228C263.29 138.614 263.341 139.738 263.442 141.592C263.542 143.446 263.643 146.571 263.744 150.961C263.945 155.252 264.19 161.306 264.492 169.109C264.492 170.864 266.19 171.742 269.586 171.742C272.981 171.742 274.679 170.864 274.679 169.109Z" fill="#F5F5F4" style="fill:#F5F5F4;fill:color(display-p3 0.9608 0.9608 0.9569);fill-opacity:1;"/>
<path d="M290.298 336.314C288.507 336.314 287.032 335.759 285.838 334.656C284.643 333.546 284.046 332.24 284.046 330.744C284.046 329.248 284.55 327.928 285.557 326.818C286.564 325.709 287.902 325.161 289.579 325.161H333.788C336.299 325.161 338.199 324.536 339.501 323.243C340.81 321.965 341.465 319.992 341.465 317.309V277.411C341.465 273.927 342.184 270.767 343.609 267.922C345.033 265.071 346.94 262.838 349.321 261.201C350.799 260.194 352.433 259.498 354.228 259.115C352.433 258.732 350.799 258.037 349.321 257.03C346.94 255.407 345.033 253.167 343.609 250.308C342.184 247.464 341.465 244.304 341.465 240.82V201.097C341.465 198.429 340.81 196.455 339.501 195.163C338.191 193.885 336.285 193.246 333.788 193.246H289.579C287.917 193.246 286.579 192.691 285.557 191.581C284.55 190.486 284.046 189.172 284.046 187.655C284.046 186.033 284.636 184.705 285.838 183.659C287.025 182.613 288.507 182.093 290.298 182.093H337.911C343.745 182.093 348.199 183.61 351.3 186.623C354.4 189.636 355.94 194.053 355.94 199.861V239.402C355.94 244.163 356.926 247.661 358.875 249.859C360.839 252.064 364.321 253.23 369.314 253.342C370.868 253.455 372.113 254.031 373.056 255.077C374.012 256.124 374.48 257.465 374.48 259.087C374.48 260.604 374.012 261.932 373.056 263.083C372.113 264.242 370.847 264.832 369.314 264.832C364.321 264.945 360.847 266.11 358.875 268.316C356.911 270.521 355.94 274.061 355.94 278.949V318.489C355.94 322.33 355.257 325.575 353.882 328.258C352.508 330.941 350.494 332.935 347.817 334.277C345.134 335.604 341.832 336.271 337.911 336.271H290.298V336.314Z" fill="#F5F5F4" style="fill:#F5F5F4;fill:color(display-p3 0.9608 0.9608 0.9569);fill-opacity:1;"/>
<path d="M173.576 336.31C169.655 336.31 166.353 335.643 163.67 334.316C160.993 332.988 158.964 330.966 157.605 328.297C156.245 325.628 155.547 322.362 155.547 318.528V278.988C155.547 274.114 154.561 270.567 152.612 268.355C150.648 266.149 147.166 264.983 142.173 264.871C140.619 264.871 139.374 264.295 138.432 263.122C137.475 261.964 137.007 260.622 137.007 259.126C137.007 257.504 137.475 256.162 138.432 255.116C139.381 254.07 140.64 253.494 142.173 253.381C147.166 253.262 150.648 252.103 152.612 249.898C154.576 247.693 155.547 244.202 155.547 239.44V199.9C155.547 194.092 157.101 189.675 160.187 186.662C163.274 183.649 167.742 182.132 173.576 182.132H221.189C222.98 182.132 224.455 182.658 225.649 183.698C226.837 184.744 227.441 186.086 227.441 187.694C227.441 189.211 226.937 190.51 225.93 191.62C224.923 192.73 223.585 193.284 221.908 193.284H177.699C175.188 193.284 173.289 193.924 171.986 195.202C170.677 196.48 170.022 198.453 170.022 201.136V240.859C170.022 244.343 169.303 247.503 167.878 250.347C166.454 253.199 164.547 255.432 162.166 257.068C160.688 258.075 159.054 258.771 157.259 259.154C159.054 259.537 160.688 260.233 162.166 261.24C164.547 262.862 166.454 265.103 167.878 267.961C169.303 270.806 170.022 273.966 170.022 277.449V317.348C170.022 320.031 170.677 321.997 171.986 323.282C173.296 324.575 175.202 325.2 177.699 325.2H221.908C223.57 325.2 224.908 325.754 225.93 326.857C226.952 327.967 227.441 329.273 227.441 330.783C227.441 332.293 226.851 333.585 225.649 334.695C224.455 335.805 222.973 336.352 221.189 336.352H173.576V336.31Z" fill="#F5F5F4" style="fill:#F5F5F4;fill:color(display-p3 0.9608 0.9608 0.9569);fill-opacity:1;"/>
<path d="M318.234 258.927C318.234 267.39 311.205 274.251 302.536 274.251C293.867 274.251 286.838 267.39 286.838 258.927C286.838 250.464 293.867 243.602 302.536 243.602C311.205 243.602 318.234 250.464 318.234 258.927Z" fill="#F5F5F4" style="fill:#F5F5F4;fill:color(display-p3 0.9608 0.9608 0.9569);fill-opacity:1;"/>
<path d="M214.606 274.251C223.275 274.251 230.304 267.39 230.304 258.927C230.304 250.464 223.275 243.602 214.606 243.602C205.936 243.602 198.908 250.464 198.908 258.927C198.908 267.39 205.936 274.251 214.606 274.251Z" fill="#F5F5F4" style="fill:#F5F5F4;fill:color(display-p3 0.9608 0.9608 0.9569);fill-opacity:1;"/>
</svg>
