<svg width="16" height="16" viewBox="0 0 16 16" fill="none" xmlns="http://www.w3.org/2000/svg">
<g clip-path="url(#clip0_1383_396)">
<g clip-path="url(#clip1_1383_396)">
<path d="M2.40047 13.1697C2.14313 13.1697 1.92634 13.125 1.75009 13.0357C1.57466 12.9463 1.44144 12.8106 1.35208 12.631C1.26271 12.4515 1.2172 12.2322 1.2172 11.974V9.3154C1.2172 8.98772 1.15266 8.74941 1.0244 8.60047C0.895316 8.45235 0.666936 8.37374 0.33926 8.3663C0.237482 8.3663 0.155563 8.32741 0.0935034 8.2488C0.0306162 8.17101 0 8.08082 0 7.97987C0 7.87065 0.0306162 7.78045 0.0935034 7.71012C0.155563 7.63978 0.23831 7.60089 0.33926 7.59344C0.666936 7.58517 0.895316 7.50739 1.0244 7.35927C1.15348 7.21116 1.2172 6.97616 1.2172 6.65593V3.99729C1.2172 3.60672 1.31898 3.30966 1.52171 3.10694C1.72443 2.90421 2.01736 2.80243 2.40047 2.80243H5.5258C5.6433 2.80243 5.74012 2.83801 5.81872 2.90752C5.89651 2.97785 5.93622 3.06805 5.93622 3.17644C5.93622 3.27822 5.90313 3.36593 5.83693 3.4404C5.77073 3.51488 5.68302 3.55211 5.57297 3.55211H2.67105C2.50639 3.55211 2.38144 3.59514 2.29621 3.6812C2.21016 3.76725 2.16713 3.89965 2.16713 4.08003V6.75109C2.16713 6.98526 2.11996 7.19792 2.02646 7.38906C1.93296 7.58103 1.80801 7.7308 1.65162 7.84086C1.49523 7.95008 1.31236 8.00469 1.10135 8.00469V7.95753C1.31236 7.95753 1.49523 8.01214 1.65162 8.12137C1.80801 8.23059 1.93296 8.38119 2.02646 8.57316C2.11996 8.76431 2.16713 8.97696 2.16713 9.21114V11.8938C2.16713 12.0742 2.21016 12.2066 2.29621 12.2926C2.38227 12.3795 2.50722 12.4217 2.67105 12.4217H5.57297C5.68219 12.4217 5.7699 12.4589 5.83693 12.5334C5.90395 12.6079 5.93622 12.6956 5.93622 12.7974C5.93622 12.8991 5.89733 12.986 5.81872 13.0605C5.74012 13.135 5.6433 13.1722 5.5258 13.1722H2.40047V13.1697Z" fill="#CED0D6"/>
<path d="M10.4742 13.1698C10.3567 13.1698 10.2599 13.1325 10.1813 13.0581C10.1027 12.9836 10.0638 12.8959 10.0638 12.7949C10.0638 12.694 10.0969 12.6054 10.1631 12.531C10.2293 12.4565 10.317 12.4193 10.427 12.4193H13.329C13.4936 12.4193 13.6186 12.3771 13.7038 12.2902C13.7899 12.2041 13.8329 12.0717 13.8329 11.8913V9.20869C13.8329 8.97452 13.88 8.76186 13.9735 8.57072C14.0671 8.37875 14.192 8.22898 14.3484 8.11892C14.5048 8.0097 14.6876 7.95509 14.8987 7.95509V8.00225C14.6876 8.00225 14.5048 7.94764 14.3484 7.83841C14.192 7.72919 14.0671 7.57859 13.9735 7.38662C13.88 7.19548 13.8329 6.98282 13.8329 6.74864V4.07759C13.8329 3.89803 13.7899 3.76564 13.7038 3.67875C13.6177 3.5927 13.4928 3.54967 13.329 3.54967H10.427C10.3178 3.54967 10.2301 3.51243 10.1631 3.43796C10.0969 3.36432 10.0638 3.27578 10.0638 3.174C10.0638 3.06478 10.1027 2.97541 10.1813 2.90508C10.2591 2.83474 10.3567 2.79999 10.4742 2.79999H13.5995C13.9826 2.79999 14.2747 2.90177 14.4783 3.10449C14.6819 3.30722 14.7828 3.60428 14.7828 3.99485V6.65349C14.7828 6.97371 14.8473 7.20871 14.9756 7.35683C15.1047 7.50495 15.3331 7.58356 15.6607 7.591C15.7625 7.59845 15.8444 7.63734 15.9065 7.70768C15.9694 7.77801 16 7.8682 16 7.97743C16 8.07921 15.9694 8.16857 15.9065 8.24635C15.8444 8.32414 15.7617 8.36385 15.6607 8.36385C15.3331 8.3713 15.1047 8.44991 14.9756 8.59803C14.8465 8.74614 14.7828 8.98445 14.7828 9.31296V11.9716C14.7828 12.2298 14.7381 12.4482 14.6479 12.6286C14.5577 12.809 14.4253 12.943 14.2499 13.0332C14.0737 13.1226 13.8569 13.1673 13.5995 13.1673H10.4742V13.1698Z" fill="#CED0D6"/>
</g>
<path d="M10.6779 7.96033C11.171 7.96033 11.5707 7.56061 11.5707 7.06754C11.5707 6.57446 11.171 6.17474 10.6779 6.17474C10.1848 6.17474 9.7851 6.57446 9.7851 7.06754C9.7851 7.56061 10.1848 7.96033 10.6779 7.96033Z" fill="#CED0D6"/>
<path d="M5.23178 7.96033C5.72486 7.96033 6.12458 7.56061 6.12458 7.06754C6.12458 6.57446 5.72486 6.17474 5.23178 6.17474C4.73871 6.17474 4.33899 6.57446 4.33899 7.06754C4.33899 7.56061 4.73871 7.96033 5.23178 7.96033Z" fill="#CED0D6"/>
<path d="M5.78026 8.82698L5.78036 8.8269L5.77535 8.82119C5.66866 8.69955 5.51619 8.62635 5.32294 8.62635C5.18232 8.62635 5.04892 8.67825 4.94871 8.75807C4.85087 8.836 4.75922 8.96296 4.75922 9.12361C4.75922 9.18786 4.77057 9.24756 4.78596 9.2966C4.79801 9.33503 4.8187 9.38676 4.85296 9.43073C5.5737 10.4544 6.56837 11.0143 7.8876 11.0143C9.20684 11.0143 10.2015 10.4544 10.9223 9.43073C10.9565 9.38676 10.9772 9.33503 10.9893 9.2966C11.0046 9.24756 11.016 9.18786 11.016 9.12361C11.016 8.96296 10.9243 8.836 10.8265 8.75806C10.7263 8.67825 10.5929 8.62635 10.4523 8.62635C10.259 8.62635 10.1065 8.69955 9.99986 8.82119L9.99976 8.82111L9.99495 8.82698C9.70458 9.1813 9.40234 9.43431 9.06556 9.59992C8.72937 9.76523 8.34689 9.84931 7.8876 9.84931C7.42832 9.84931 7.04584 9.76523 6.70965 9.59992C6.37287 9.43431 6.07063 9.1813 5.78026 8.82698Z" fill="#CED0D6" />
</g>
<defs>
<clipPath id="clip0_1383_396">
<rect width="16" height="10.4" fill="white" transform="translate(0 2.79999)"/>
</clipPath>
<clipPath id="clip1_1383_396">
<rect width="16" height="10.4" fill="white" transform="translate(0 2.79999)"/>
</clipPath>
</defs>
</svg>
