<svg width="16" height="16" viewBox="0 0 16 16" fill="none" xmlns="http://www.w3.org/2000/svg">
<g clip-path="url(#clip0_1629_439)">
<path d="M2.40048 13.3975C2.14314 13.3975 1.92634 13.3527 1.75009 13.2631C1.57467 13.1735 1.44145 13.0374 1.35208 12.8574C1.26271 12.6774 1.2172 12.4575 1.2172 12.1986V9.53289C1.2172 9.20434 1.15266 8.96539 1.0244 8.81605C0.895318 8.66754 0.666938 8.58872 0.339261 8.58125C0.237483 8.58125 0.155564 8.54225 0.0935037 8.46344C0.0306162 8.38545 0 8.29501 0 8.19379C0 8.08427 0.0306162 7.99384 0.0935037 7.92331C0.155564 7.85279 0.23831 7.8138 0.339261 7.80633C0.666938 7.79803 0.895318 7.72004 1.0244 7.57153C1.15349 7.42302 1.2172 7.18739 1.2172 6.86631V4.20056C1.2172 3.80895 1.31898 3.51109 1.52171 3.30782C1.72444 3.10455 2.01736 3.0025 2.40048 3.0025H5.52582C5.64332 3.0025 5.74013 3.03818 5.81874 3.10787C5.89652 3.17839 5.93624 3.26883 5.93624 3.37752C5.93624 3.47957 5.90314 3.56751 5.83694 3.64218C5.77075 3.71685 5.68304 3.75419 5.57298 3.75419H2.67106C2.50639 3.75419 2.38145 3.79733 2.29622 3.88362C2.21016 3.96991 2.16713 4.10265 2.16713 4.28352V6.96172C2.16713 7.19652 2.11997 7.40975 2.02646 7.6014C1.93296 7.79389 1.80801 7.94406 1.65162 8.0544C1.49523 8.16392 1.31236 8.21868 1.10136 8.21868V8.17139C1.31236 8.17139 1.49523 8.22615 1.65162 8.33566C1.80801 8.44518 1.93296 8.59618 2.02646 8.78867C2.11997 8.98032 2.16713 9.19355 2.16713 9.42835V12.1182C2.16713 12.299 2.21016 12.4318 2.29622 12.5181C2.38227 12.6052 2.50722 12.6475 2.67106 12.6475H5.57298C5.68221 12.6475 5.76992 12.6848 5.83694 12.7595C5.90397 12.8342 5.93624 12.9221 5.93624 13.0242C5.93624 13.1262 5.89735 13.2133 5.81874 13.288C5.74013 13.3627 5.64332 13.4 5.52582 13.4H2.40048V13.3975Z" fill="#CED0D6"/>
<path d="M10.4742 13.3975C10.3567 13.3975 10.2599 13.3602 10.1813 13.2855C10.1027 13.2108 10.0638 13.1229 10.0638 13.0217C10.0638 12.9204 10.0969 12.8317 10.1631 12.757C10.2293 12.6823 10.317 12.645 10.427 12.645H13.329C13.4936 12.645 13.6186 12.6027 13.7038 12.5156C13.7899 12.4293 13.8329 12.2965 13.8329 12.1157V9.42585C13.8329 9.19105 13.8801 8.97782 13.9736 8.78617C14.0671 8.59368 14.192 8.44351 14.3484 8.33316C14.5048 8.22364 14.6877 8.16889 14.8987 8.16889V8.21618C14.6877 8.21618 14.5048 8.16142 14.3484 8.0519C14.192 7.94238 14.0671 7.79138 13.9736 7.5989C13.8801 7.40724 13.8329 7.19402 13.8329 6.95922V4.28102C13.8329 4.10098 13.7899 3.96823 13.7038 3.88112C13.6177 3.79483 13.4928 3.75169 13.329 3.75169H10.427C10.3178 3.75169 10.2301 3.71435 10.1631 3.63968C10.0969 3.56584 10.0638 3.47706 10.0638 3.37501C10.0638 3.2655 10.1027 3.17589 10.1813 3.10537C10.2591 3.03485 10.3567 3 10.4742 3H13.5995C13.9827 3 14.2748 3.10205 14.4783 3.30532C14.6819 3.50859 14.7828 3.80645 14.7828 4.19805V6.8638C14.7828 7.18489 14.8474 7.42052 14.9756 7.56903C15.1047 7.71754 15.3331 7.79636 15.6608 7.80383C15.7625 7.81129 15.8445 7.85029 15.9065 7.92081C15.9694 7.99134 16 8.08177 16 8.19129C16 8.29334 15.9694 8.38294 15.9065 8.46093C15.8445 8.53892 15.7617 8.57875 15.6608 8.57875C15.3331 8.58621 15.1047 8.66503 14.9756 8.81354C14.8465 8.96206 14.7828 9.201 14.7828 9.53039V12.1961C14.7828 12.455 14.7381 12.674 14.6479 12.8549C14.5577 13.0358 14.4254 13.1702 14.2499 13.2606C14.0737 13.3502 13.8569 13.395 13.5995 13.395H10.4742V13.3975Z" fill="#CED0D6"/>
<path d="M4.60102 9.13544C5.15386 9.13544 5.60203 8.68727 5.60203 8.13443C5.60203 7.58159 5.15386 7.13342 4.60102 7.13342C4.04817 7.13342 3.60001 7.58159 3.60001 8.13443C3.60001 8.68727 4.04817 9.13544 4.60102 9.13544Z" fill="#CED0D6"/>
<path d="M7.93772 9.13544C8.49056 9.13544 8.93873 8.68727 8.93873 8.13443C8.93873 7.58159 8.49056 7.13342 7.93772 7.13342C7.38487 7.13342 6.93671 7.58159 6.93671 8.13443C6.93671 8.68727 7.38487 9.13544 7.93772 9.13544Z" fill="#CED0D6"/>
<path d="M11.2744 9.13544C11.8273 9.13544 12.2754 8.68727 12.2754 8.13443C12.2754 7.58159 11.8273 7.13342 11.2744 7.13342C10.7216 7.13342 10.2734 7.58159 10.2734 8.13443C10.2734 8.68727 10.7216 9.13544 11.2744 9.13544Z" fill="#CED0D6"/>
</g>
<defs>
<clipPath id="clip0_1629_439">
<rect width="16" height="10.4" fill="white" transform="translate(0 3)"/>
</clipPath>
</defs>
</svg>
